<svg width="13" height="12" viewBox="0 0 13 12" fill="none" xmlns="http://www.w3.org/2000/svg">
<path d="M2.11285 0.251219C3.39715 0.0854646 4.70659 0 6.03589 0C7.36506 0 8.67437 0.0854475 9.95854 0.251169C11.1485 0.404734 11.9961 1.39653 12.0667 2.54458C11.865 2.47762 11.6512 2.43321 11.4276 2.41476C10.568 2.34384 9.69882 2.30769 8.82141 2.30769C7.94401 2.30769 7.0748 2.34383 6.21523 2.41475C4.75534 2.5352 3.71429 3.76287 3.71429 5.14351V7.78073C3.71429 8.82113 4.30528 9.77392 5.22031 10.2325L3.5783 11.8648C3.44551 11.9968 3.24582 12.0363 3.07233 11.9649C2.89883 11.8934 2.78571 11.7251 2.78571 11.5384V9.05878C2.56069 9.03482 2.33639 9.0084 2.11286 8.97955C0.869553 8.81909 0 7.74356 0 6.53085V2.69992C0 1.48721 0.86955 0.411683 2.11285 0.251219Z" fill="#D6008D"/>
<path d="M8.82141 3.23077C7.96968 3.23077 7.12609 3.26585 6.29203 3.33467C5.33914 3.41329 4.64286 4.21711 4.64286 5.14351V7.78073C4.64286 8.70853 5.34112 9.5128 6.29522 9.59022C7.06523 9.6527 7.84336 9.68688 8.62852 9.6917L10.3503 11.4033C10.4831 11.5353 10.6828 11.5748 10.8562 11.5033C11.0297 11.4319 11.1429 11.2636 11.1429 11.0769V9.60621C11.2112 9.60112 11.2794 9.59581 11.3476 9.59028C12.3017 9.51288 13 8.7086 13 7.78078V5.14351C13 4.21712 12.3037 3.41329 11.3508 3.33467C10.5168 3.26585 9.67315 3.23077 8.82141 3.23077Z" fill="#D6008D"/>
</svg>
