<svg width="13" height="13" viewBox="0 0 13 13" fill="none" xmlns="http://www.w3.org/2000/svg">
<g clip-path="url(#clip0_262_1326)">
<path d="M11.9221 3.06056C11.8929 3.00367 11.8506 2.95448 11.7988 2.91702C11.7469 2.87956 11.6869 2.85487 11.6237 2.84497C11.5605 2.83508 11.4959 2.84024 11.435 2.86006C11.3742 2.87987 11.3189 2.91377 11.2737 2.959L9.71367 4.52001C9.63709 4.59548 9.53389 4.63779 9.42637 4.63779C9.31886 4.63779 9.21566 4.59548 9.13908 4.52001L8.4647 3.84462C8.42697 3.8069 8.39704 3.76211 8.37661 3.71281C8.35619 3.66352 8.34568 3.61068 8.34568 3.55733C8.34568 3.50397 8.35619 3.45114 8.37661 3.40184C8.39704 3.35255 8.42697 3.30776 8.4647 3.27003L10.0181 1.71638C10.0647 1.66982 10.0992 1.61264 10.1188 1.54976C10.1383 1.48687 10.1423 1.42018 10.1304 1.35542C10.1184 1.29066 10.0909 1.22978 10.0502 1.17801C10.0095 1.12624 9.95685 1.08514 9.89673 1.05826C8.72343 0.533685 7.2589 0.807396 6.33545 1.724C5.55088 2.50298 5.31703 3.72021 5.69433 5.06363C5.71467 5.13527 5.71479 5.21114 5.69467 5.28284C5.67455 5.35454 5.63497 5.41928 5.58033 5.46988L1.3533 9.33052C1.18863 9.47837 1.0558 9.65822 0.962924 9.8591C0.870047 10.06 0.819067 10.2777 0.813094 10.4989C0.80712 10.7201 0.846278 10.9402 0.928179 11.1458C1.01008 11.3514 1.13301 11.5382 1.28946 11.6947C1.44592 11.8512 1.63262 11.9743 1.83818 12.0562C2.04374 12.1382 2.26384 12.1775 2.48508 12.1716C2.70631 12.1657 2.92402 12.1149 3.12494 12.0221C3.32586 11.9293 3.50576 11.7965 3.65369 11.6319L7.55572 7.3955C7.60559 7.34156 7.66923 7.30225 7.73979 7.2818C7.81035 7.26135 7.88515 7.26055 7.95613 7.27946C8.3386 7.38426 8.73312 7.43863 9.12968 7.4412C9.97773 7.4412 10.7219 7.16673 11.2587 6.63784C12.2527 5.65853 12.4043 3.99747 11.9221 3.06056ZM2.52609 11.3539C2.35887 11.3722 2.1901 11.3381 2.04309 11.2563C1.89607 11.1746 1.77805 11.0492 1.70531 10.8975C1.63257 10.7458 1.60871 10.5753 1.63701 10.4095C1.66531 10.2437 1.74438 10.0907 1.8633 9.97177C1.98223 9.85281 2.13515 9.77368 2.30096 9.74532C2.46677 9.71697 2.63729 9.74077 2.78899 9.81345C2.9407 9.88614 3.0661 10.0041 3.1479 10.1511C3.2297 10.2981 3.26386 10.4668 3.24566 10.6341C3.22564 10.8181 3.1434 10.9897 3.01255 11.1206C2.8817 11.2515 2.71008 11.3338 2.52609 11.3539Z" fill="black"/>
</g>
<defs>
<clipPath id="clip0_262_1326">
<rect width="13" height="13" fill="white"/>
</clipPath>
</defs>
</svg>
