<svg width="183" height="56" viewBox="0 0 183 56" fill="none" xmlns="http://www.w3.org/2000/svg">
<circle cx="12.5224" cy="25.0326" r="10.6348" transform="rotate(90 12.5224 25.0326)" fill="#141414"/>
<circle cx="12.5224" cy="39.8973" r="5.3174" transform="rotate(90 12.5224 39.8973)" fill="url(#paint0_linear_262_1336)"/>
<circle cx="19.1826" cy="31.6497" r="5.3174" transform="rotate(90 19.1826 31.6497)" fill="white"/>
<circle cx="12.5225" cy="25.0326" r="1.77247" transform="rotate(90 12.5225 25.0326)" fill="#FFD02A"/>
<circle cx="5.81736" cy="18.3174" r="5.3174" transform="rotate(90 5.81736 18.3174)" fill="white"/>
<circle cx="19.1826" cy="18.3174" r="5.3174" transform="rotate(90 19.1826 18.3174)" fill="white"/>
<circle cx="5.81736" cy="31.6497" r="5.3174" transform="rotate(90 5.81736 31.6497)" fill="white"/>
<path d="M40.6 25.24C40.28 24.6533 39.84 24.2067 39.28 23.9C38.72 23.5933 38.0667 23.44 37.32 23.44C36.4933 23.44 35.76 23.6267 35.12 24C34.48 24.3733 33.98 24.9067 33.62 25.6C33.26 26.2933 33.08 27.0933 33.08 28C33.08 28.9333 33.26 29.7467 33.62 30.44C33.9933 31.1333 34.5067 31.6667 35.16 32.04C35.8133 32.4133 36.5733 32.6 37.44 32.6C38.5067 32.6 39.38 32.32 40.06 31.76C40.74 31.1867 41.1867 30.3933 41.4 29.38H36.6V27.24H44.16V29.68C43.9733 30.6533 43.5733 31.5533 42.96 32.38C42.3467 33.2067 41.5533 33.8733 40.58 34.38C39.62 34.8733 38.54 35.12 37.34 35.12C35.9933 35.12 34.7733 34.82 33.68 34.22C32.6 33.6067 31.7467 32.76 31.12 31.68C30.5067 30.6 30.2 29.3733 30.2 28C30.2 26.6267 30.5067 25.4 31.12 24.32C31.7467 23.2267 32.6 22.38 33.68 21.78C34.7733 21.1667 35.9867 20.86 37.32 20.86C38.8933 20.86 40.26 21.2467 41.42 22.02C42.58 22.78 43.38 23.8533 43.82 25.24H40.6ZM51.1516 35.18C50.0849 35.18 49.1249 34.9467 48.2716 34.48C47.4182 34 46.7449 33.3267 46.2516 32.46C45.7716 31.5933 45.5316 30.5933 45.5316 29.46C45.5316 28.3267 45.7782 27.3267 46.2716 26.46C46.7782 25.5933 47.4649 24.9267 48.3316 24.46C49.1982 23.98 50.1649 23.74 51.2316 23.74C52.2982 23.74 53.2649 23.98 54.1316 24.46C54.9982 24.9267 55.6782 25.5933 56.1716 26.46C56.6782 27.3267 56.9316 28.3267 56.9316 29.46C56.9316 30.5933 56.6716 31.5933 56.1516 32.46C55.6449 33.3267 54.9516 34 54.0716 34.48C53.2049 34.9467 52.2316 35.18 51.1516 35.18ZM51.1516 32.74C51.6582 32.74 52.1316 32.62 52.5716 32.38C53.0249 32.1267 53.3849 31.7533 53.6516 31.26C53.9182 30.7667 54.0516 30.1667 54.0516 29.46C54.0516 28.4067 53.7716 27.6 53.2116 27.04C52.6649 26.4667 51.9916 26.18 51.1916 26.18C50.3916 26.18 49.7182 26.4667 49.1716 27.04C48.6382 27.6 48.3716 28.4067 48.3716 29.46C48.3716 30.5133 48.6316 31.3267 49.1516 31.9C49.6849 32.46 50.3516 32.74 51.1516 32.74ZM63.2255 35.18C62.3188 35.18 61.5055 35.02 60.7855 34.7C60.0655 34.3667 59.4921 33.92 59.0655 33.36C58.6521 32.8 58.4255 32.18 58.3855 31.5H61.2055C61.2588 31.9267 61.4655 32.28 61.8255 32.56C62.1988 32.84 62.6588 32.98 63.2055 32.98C63.7388 32.98 64.1521 32.8733 64.4455 32.66C64.7521 32.4467 64.9055 32.1733 64.9055 31.84C64.9055 31.48 64.7188 31.2133 64.3455 31.04C63.9855 30.8533 63.4055 30.6533 62.6055 30.44C61.7788 30.24 61.0988 30.0333 60.5655 29.82C60.0455 29.6067 59.5921 29.28 59.2055 28.84C58.8321 28.4 58.6455 27.8067 58.6455 27.06C58.6455 26.4467 58.8188 25.8867 59.1655 25.38C59.5255 24.8733 60.0321 24.4733 60.6855 24.18C61.3521 23.8867 62.1321 23.74 63.0255 23.74C64.3455 23.74 65.3988 24.0733 66.1855 24.74C66.9721 25.3933 67.4055 26.28 67.4855 27.4H64.8055C64.7655 26.96 64.5788 26.6133 64.2455 26.36C63.9255 26.0933 63.4921 25.96 62.9455 25.96C62.4388 25.96 62.0455 26.0533 61.7655 26.24C61.4988 26.4267 61.3655 26.6867 61.3655 27.02C61.3655 27.3933 61.5521 27.68 61.9255 27.88C62.2988 28.0667 62.8788 28.26 63.6655 28.46C64.4655 28.66 65.1255 28.8667 65.6455 29.08C66.1655 29.2933 66.6121 29.6267 66.9855 30.08C67.3721 30.52 67.5721 31.1067 67.5855 31.84C67.5855 32.48 67.4055 33.0533 67.0455 33.56C66.6988 34.0667 66.1921 34.4667 65.5255 34.76C64.8721 35.04 64.1055 35.18 63.2255 35.18ZM72.6839 25.52C73.0439 25.0133 73.5372 24.5933 74.1639 24.26C74.8039 23.9133 75.5306 23.74 76.3439 23.74C77.2906 23.74 78.1439 23.9733 78.9039 24.44C79.6772 24.9067 80.2839 25.5733 80.7239 26.44C81.1772 27.2933 81.4039 28.2867 81.4039 29.42C81.4039 30.5533 81.1772 31.56 80.7239 32.44C80.2839 33.3067 79.6772 33.98 78.9039 34.46C78.1439 34.94 77.2906 35.18 76.3439 35.18C75.5306 35.18 74.8106 35.0133 74.1839 34.68C73.5706 34.3467 73.0706 33.9267 72.6839 33.42V40.28H69.8839V23.92H72.6839V25.52ZM78.5439 29.42C78.5439 28.7533 78.4039 28.18 78.1239 27.7C77.8572 27.2067 77.4972 26.8333 77.0439 26.58C76.6039 26.3267 76.1239 26.2 75.6039 26.2C75.0972 26.2 74.6172 26.3333 74.1639 26.6C73.7239 26.8533 73.3639 27.2267 73.0839 27.72C72.8172 28.2133 72.6839 28.7933 72.6839 29.46C72.6839 30.1267 72.8172 30.7067 73.0839 31.2C73.3639 31.6933 73.7239 32.0733 74.1639 32.34C74.6172 32.5933 75.0972 32.72 75.6039 32.72C76.1239 32.72 76.6039 32.5867 77.0439 32.32C77.4972 32.0533 77.8572 31.6733 78.1239 31.18C78.4039 30.6867 78.5439 30.1 78.5439 29.42ZM93.7386 29.22C93.7386 29.62 93.7119 29.98 93.6586 30.3H85.5586C85.6253 31.1 85.9053 31.7267 86.3986 32.18C86.8919 32.6333 87.4986 32.86 88.2186 32.86C89.2586 32.86 89.9986 32.4133 90.4386 31.52H93.4586C93.1386 32.5867 92.5253 33.4667 91.6186 34.16C90.7119 34.84 89.5986 35.18 88.2786 35.18C87.2119 35.18 86.2519 34.9467 85.3986 34.48C84.5586 34 83.8986 33.3267 83.4186 32.46C82.9519 31.5933 82.7186 30.5933 82.7186 29.46C82.7186 28.3133 82.9519 27.3067 83.4186 26.44C83.8853 25.5733 84.5386 24.9067 85.3786 24.44C86.2186 23.9733 87.1853 23.74 88.2786 23.74C89.3319 23.74 90.2719 23.9667 91.0986 24.42C91.9386 24.8733 92.5853 25.52 93.0386 26.36C93.5053 27.1867 93.7386 28.14 93.7386 29.22ZM90.8386 28.42C90.8253 27.7 90.5653 27.1267 90.0586 26.7C89.5519 26.26 88.9319 26.04 88.1986 26.04C87.5053 26.04 86.9186 26.2533 86.4386 26.68C85.9719 27.0933 85.6853 27.6733 85.5786 28.42H90.8386ZM98.5823 20.2V35H95.7823V20.2H98.5823ZM102.769 22.6C102.275 22.6 101.862 22.4467 101.529 22.14C101.209 21.82 101.049 21.4267 101.049 20.96C101.049 20.4933 101.209 20.1067 101.529 19.8C101.862 19.48 102.275 19.32 102.769 19.32C103.262 19.32 103.669 19.48 103.989 19.8C104.322 20.1067 104.489 20.4933 104.489 20.96C104.489 21.4267 104.322 21.82 103.989 22.14C103.669 22.4467 103.262 22.6 102.769 22.6ZM104.149 23.92V35H101.349V23.92H104.149ZM111.835 35.18C110.768 35.18 109.808 34.9467 108.955 34.48C108.102 34 107.428 33.3267 106.935 32.46C106.455 31.5933 106.215 30.5933 106.215 29.46C106.215 28.3267 106.462 27.3267 106.955 26.46C107.462 25.5933 108.148 24.9267 109.015 24.46C109.882 23.98 110.848 23.74 111.915 23.74C112.982 23.74 113.948 23.98 114.815 24.46C115.682 24.9267 116.362 25.5933 116.855 26.46C117.362 27.3267 117.615 28.3267 117.615 29.46C117.615 30.5933 117.355 31.5933 116.835 32.46C116.328 33.3267 115.635 34 114.755 34.48C113.888 34.9467 112.915 35.18 111.835 35.18ZM111.835 32.74C112.342 32.74 112.815 32.62 113.255 32.38C113.708 32.1267 114.068 31.7533 114.335 31.26C114.602 30.7667 114.735 30.1667 114.735 29.46C114.735 28.4067 114.455 27.6 113.895 27.04C113.348 26.4667 112.675 26.18 111.875 26.18C111.075 26.18 110.402 26.4667 109.855 27.04C109.322 27.6 109.055 28.4067 109.055 29.46C109.055 30.5133 109.315 31.3267 109.835 31.9C110.368 32.46 111.035 32.74 111.835 32.74Z" fill="url(#paint1_linear_262_1336)"/>
<defs>
<linearGradient id="paint0_linear_262_1336" x1="16.2716" y1="35.9985" x2="10.0864" y2="44.5144" gradientUnits="userSpaceOnUse">
<stop stop-color="#0029FF"/>
<stop offset="1" stop-color="#00B2FF"/>
</linearGradient>
<linearGradient id="paint1_linear_262_1336" x1="33.9022" y1="24.0527" x2="156.635" y2="28.6715" gradientUnits="userSpaceOnUse">
<stop stop-color="#0048FF"/>
<stop offset="1" stop-color="#D6008D"/>
</linearGradient>
</defs>
</svg>
