<svg width="16" height="15" viewBox="0 0 16 15" fill="none" xmlns="http://www.w3.org/2000/svg">
<g clip-path="url(#clip0_262_1334)">
<path d="M8.16289 2.96745C8.11927 2.92572 8.06124 2.90244 8.00088 2.90244C7.94052 2.90244 7.88248 2.92572 7.83887 2.96745L2.44531 8.11989C2.42241 8.1418 2.40418 8.16813 2.39175 8.19728C2.37931 8.22644 2.37291 8.25782 2.37295 8.28952L2.37207 13.1253C2.37207 13.3739 2.47084 13.6124 2.64666 13.7882C2.82247 13.964 3.06093 14.0628 3.30957 14.0628H6.125C6.24932 14.0628 6.36855 14.0134 6.45645 13.9255C6.54436 13.8376 6.59375 13.7183 6.59375 13.594V9.60963C6.59375 9.54747 6.61844 9.48786 6.6624 9.4439C6.70635 9.39995 6.76596 9.37526 6.82812 9.37526H9.17187C9.23403 9.37526 9.29365 9.39995 9.3376 9.4439C9.38155 9.48786 9.40625 9.54747 9.40625 9.60963V13.594C9.40625 13.7183 9.45563 13.8376 9.54354 13.9255C9.63145 14.0134 9.75068 14.0628 9.875 14.0628H12.6893C12.9379 14.0628 13.1764 13.964 13.3522 13.7882C13.528 13.6124 13.6268 13.3739 13.6268 13.1253V8.28952C13.6268 8.25782 13.6204 8.22644 13.608 8.19728C13.5955 8.16813 13.5773 8.1418 13.5544 8.11989L8.16289 2.96745Z" fill="black"/>
<path d="M14.8821 7.15362L12.6907 5.05714V1.87579C12.6907 1.75147 12.6413 1.63224 12.5534 1.54434C12.4655 1.45643 12.3463 1.40704 12.222 1.40704H10.8157C10.6914 1.40704 10.5722 1.45643 10.4843 1.54434C10.3964 1.63224 10.347 1.75147 10.347 1.87579V2.81329L8.65011 1.19083C8.49132 1.03029 8.25518 0.938293 8.00001 0.938293C7.74571 0.938293 7.51016 1.03029 7.35138 1.19113L1.11993 7.15304C0.937706 7.32882 0.914855 7.61798 1.08068 7.80841C1.12232 7.85648 1.1733 7.89557 1.23053 7.92331C1.28776 7.95104 1.35003 7.96684 1.41356 7.96975C1.47709 7.97265 1.54054 7.9626 1.60006 7.9402C1.65958 7.91781 1.71392 7.88353 1.75978 7.83946L7.83888 2.03048C7.88249 1.98876 7.94053 1.96547 8.00089 1.96547C8.06125 1.96547 8.11928 1.98876 8.1629 2.03048L14.2426 7.83946C14.3321 7.92535 14.4521 7.97222 14.5762 7.9698C14.7002 7.96739 14.8183 7.91588 14.9044 7.82657C15.0843 7.64025 15.0693 7.33263 14.8821 7.15362Z" fill="black"/>
</g>
<defs>
<clipPath id="clip0_262_1334">
<rect x="0.5" y="-6.10352e-05" width="15" height="15" rx="5" fill="white"/>
</clipPath>
</defs>
</svg>
