<svg width="31" height="31" viewBox="0 0 31 31" fill="none" xmlns="http://www.w3.org/2000/svg">
<g filter="url(#filter0_d_262_1399)">
<path d="M6 9C6 6.23858 8.23858 4 11 4H20C22.7614 4 25 6.23858 25 9V18C25 20.7614 22.7614 23 20 23H11C8.23858 23 6 20.7614 6 18V9Z" fill="white"/>
</g>
<g clip-path="url(#clip0_262_1399)">
<path d="M12.2109 15.495V16.6058C12.2109 16.7081 12.2913 16.7885 12.3936 16.7885H13.5044C13.5519 16.7885 13.5994 16.7702 13.6323 16.7337L17.6223 12.7473L16.2521 11.3771L12.2657 15.3635C12.2292 15.4 12.2109 15.4438 12.2109 15.495ZM18.6819 11.6877C18.8244 11.5452 18.8244 11.315 18.6819 11.1725L17.8269 10.3175C17.6844 10.175 17.4542 10.175 17.3117 10.3175L16.6431 10.9862L18.0132 12.3563L18.6819 11.6877Z" fill="#FF94EE"/>
</g>
<defs>
<filter id="filter0_d_262_1399" x="0.5" y="0.5" width="30" height="30" filterUnits="userSpaceOnUse" color-interpolation-filters="sRGB">
<feFlood flood-opacity="0" result="BackgroundImageFix"/>
<feColorMatrix in="SourceAlpha" type="matrix" values="0 0 0 0 0 0 0 0 0 0 0 0 0 0 0 0 0 0 127 0" result="hardAlpha"/>
<feOffset dy="2"/>
<feGaussianBlur stdDeviation="2.75"/>
<feColorMatrix type="matrix" values="0 0 0 0 0 0 0 0 0 0 0 0 0 0 0 0 0 0 0.06 0"/>
<feBlend mode="normal" in2="BackgroundImageFix" result="effect1_dropShadow_262_1399"/>
<feBlend mode="normal" in="SourceGraphic" in2="effect1_dropShadow_262_1399" result="shape"/>
</filter>
<clipPath id="clip0_262_1399">
<path d="M11.1152 13.5C11.1152 11.0784 13.0783 9.11539 15.4998 9.11539C17.9214 9.11539 19.8845 11.0784 19.8845 13.5C19.8845 15.9216 17.9214 17.8846 15.4998 17.8846C13.0783 17.8846 11.1152 15.9216 11.1152 13.5Z" fill="white"/>
</clipPath>
</defs>
</svg>
