<svg width="13" height="13" viewBox="0 0 13 13" fill="none" xmlns="http://www.w3.org/2000/svg">
<path d="M2.64062 12.5941H1.82812C1.66651 12.5941 1.51151 12.5299 1.39723 12.4156C1.28295 12.3013 1.21875 12.1463 1.21875 11.9847V8.32845C1.21875 8.16683 1.28295 8.01183 1.39723 7.89755C1.51151 7.78327 1.66651 7.71907 1.82812 7.71907H2.64062C2.80224 7.71907 2.95724 7.78327 3.07152 7.89755C3.1858 8.01183 3.25 8.16683 3.25 8.32845V11.9847C3.25 12.1463 3.1858 12.3013 3.07152 12.4156C2.95724 12.5299 2.80224 12.5941 2.64062 12.5941Z" fill="black"/>
<path d="M8.32812 12.5934H7.51562C7.35401 12.5934 7.19901 12.5292 7.08473 12.4149C6.97045 12.3006 6.90625 12.1456 6.90625 11.984V5.89024C6.90625 5.72863 6.97045 5.57363 7.08473 5.45935C7.19901 5.34507 7.35401 5.28087 7.51562 5.28087H8.32812C8.48974 5.28087 8.64474 5.34507 8.75902 5.45935C8.8733 5.57363 8.9375 5.72863 8.9375 5.89024V11.984C8.9375 12.1456 8.8733 12.3006 8.75902 12.4149C8.64474 12.5292 8.48974 12.5934 8.32812 12.5934Z" fill="black"/>
<path d="M11.1719 12.5937H10.3594C10.1978 12.5937 10.0428 12.5295 9.92848 12.4152C9.8142 12.3009 9.75 12.1459 9.75 11.9843V3.04681C9.75 2.8852 9.8142 2.7302 9.92848 2.61592C10.0428 2.50164 10.1978 2.43744 10.3594 2.43744H11.1719C11.3335 2.43744 11.4885 2.50164 11.6028 2.61592C11.717 2.7302 11.7812 2.8852 11.7812 3.04681V11.9843C11.7812 12.1459 11.717 12.3009 11.6028 12.4152C11.4885 12.5295 11.3335 12.5937 11.1719 12.5937Z" fill="black"/>
<path d="M5.48437 12.5935H4.67187C4.51026 12.5935 4.35526 12.5293 4.24098 12.4151C4.1267 12.3008 4.0625 12.1458 4.0625 11.9842V1.01541C4.0625 0.853795 4.1267 0.698798 4.24098 0.584518C4.35526 0.470238 4.51026 0.406036 4.67187 0.406036H5.48437C5.64599 0.406036 5.80099 0.470238 5.91527 0.584518C6.02955 0.698798 6.09375 0.853795 6.09375 1.01541V11.9842C6.09375 12.1458 6.02955 12.3008 5.91527 12.4151C5.80099 12.5293 5.64599 12.5935 5.48437 12.5935Z" fill="black"/>
</svg>
