<svg width="24" height="25" viewBox="0 0 24 25" fill="none" xmlns="http://www.w3.org/2000/svg">
<path d="M12.0314 3.35471C7.13105 3.35471 3.15527 7.38595 3.15527 12.3547C3.15527 17.3235 7.13105 21.3547 12.0314 21.3547C16.9318 21.3547 20.9076 17.3235 20.9076 12.3547C20.9076 7.38595 16.9318 3.35471 12.0314 3.35471ZM11.754 17.6047C11.5712 17.6047 11.3924 17.5497 11.2404 17.4467C11.0883 17.3437 10.9698 17.1973 10.8998 17.026C10.8298 16.8547 10.8115 16.6662 10.8472 16.4843C10.8829 16.3024 10.9709 16.1354 11.1002 16.0043C11.2296 15.8732 11.3943 15.7839 11.5737 15.7477C11.753 15.7115 11.9389 15.7301 12.1079 15.8011C12.2768 15.872 12.4212 15.9922 12.5228 16.1464C12.6244 16.3005 12.6786 16.4818 12.6786 16.6672C12.6786 16.9158 12.5812 17.1543 12.4078 17.3301C12.2344 17.5059 11.9993 17.6047 11.754 17.6047ZM13.3 12.8235C12.5506 13.3335 12.4475 13.8008 12.4475 14.2297C12.4475 14.4038 12.3793 14.5707 12.2579 14.6937C12.1365 14.8168 11.9719 14.886 11.8003 14.886C11.6286 14.886 11.464 14.8168 11.3426 14.6937C11.2212 14.5707 11.1531 14.4038 11.1531 14.2297C11.1531 13.2027 11.619 12.3861 12.5779 11.7331C13.4692 11.1266 13.9731 10.7422 13.9731 9.89705C13.9731 9.32236 13.6495 8.88595 12.9796 8.56299C12.822 8.48705 12.4711 8.41299 12.0393 8.41814C11.4975 8.42517 11.0768 8.55642 10.7527 8.8208C10.1415 9.31955 10.0898 9.86236 10.0898 9.87033C10.0857 9.95651 10.0649 10.041 10.0286 10.1191C9.99224 10.1971 9.94113 10.2671 9.87813 10.3251C9.81513 10.3831 9.74149 10.428 9.66139 10.4571C9.5813 10.4862 9.49633 10.4991 9.41134 10.4949C9.32634 10.4908 9.24299 10.4697 9.16603 10.4329C9.08908 10.3961 9.02003 10.3442 8.96283 10.2804C8.90562 10.2165 8.86139 10.1418 8.83265 10.0606C8.80391 9.97938 8.79123 9.89323 8.79532 9.80705C8.80041 9.69314 8.87854 8.66705 9.94044 7.8008C10.491 7.35174 11.1914 7.1183 12.0208 7.10799C12.6079 7.10096 13.1594 7.20174 13.5334 7.3808C14.6527 7.91752 15.2675 8.81236 15.2675 9.89705C15.2675 11.4828 14.2223 12.1949 13.3 12.8235Z" fill="#FF94EE"/>
</svg>
