<svg width="17" height="17" viewBox="0 0 17 17" fill="none" xmlns="http://www.w3.org/2000/svg">
<path d="M4.14396 2.4793C4.33963 2.26068 4.32103 1.92483 4.1024 1.72915C3.88378 1.53348 3.54792 1.55208 3.35225 1.77071C2.50158 2.72116 1.90966 3.90963 1.68905 5.22461C1.6405 5.51396 1.83572 5.78789 2.12508 5.83643C2.41443 5.88498 2.68836 5.68976 2.7369 5.4004C2.92327 4.28953 3.42334 3.28444 4.14396 2.4793Z" fill="#fff"/>
<path d="M13.6474 1.77071C13.4517 1.55208 13.1159 1.53348 12.8973 1.72915C12.6786 1.92483 12.66 2.26068 12.8557 2.4793C13.5763 3.28444 14.0764 4.28953 14.2628 5.4004C14.3113 5.68976 14.5852 5.88498 14.8746 5.83643C15.1639 5.78789 15.3592 5.51396 15.3106 5.22461C15.09 3.90963 14.4981 2.72116 13.6474 1.77071Z" fill="#fff"/>
<path fill-rule="evenodd" clip-rule="evenodd" d="M8.49996 1.59375C5.8594 1.59375 3.71879 3.73431 3.71871 6.37486L3.71857 6.90625C3.71857 8.41013 3.15118 9.78024 2.21793 10.8162C2.1 10.9471 2.05464 11.1279 2.09685 11.299C2.13907 11.4701 2.26335 11.6091 2.42865 11.6701C3.52241 12.0739 4.6674 12.3717 5.85107 12.5511C5.84619 12.6168 5.84371 12.6832 5.84371 12.75C5.84371 14.217 7.03296 15.4062 8.49996 15.4062C9.96697 15.4062 11.1562 14.217 11.1562 12.75C11.1562 12.6831 11.1537 12.6168 11.1489 12.5511C12.3324 12.3717 13.4773 12.0739 14.571 11.6701C14.7363 11.6091 14.8606 11.4701 14.9028 11.299C14.945 11.1279 14.8996 10.9471 14.7817 10.8162C13.8485 9.78024 13.2811 8.41013 13.2811 6.90625V6.40984L13.2812 6.375C13.2812 3.73439 11.1406 1.59375 8.49996 1.59375ZM6.90621 12.75C6.90621 12.7261 6.90674 12.7023 6.90777 12.6787C7.43226 12.7259 7.96329 12.75 8.49982 12.75C9.03645 12.75 9.56758 12.7259 10.0922 12.6786C10.0932 12.7023 10.0937 12.7261 10.0937 12.75C10.0937 13.6302 9.38017 14.3438 8.49996 14.3438C7.61976 14.3438 6.90621 13.6302 6.90621 12.75Z" fill="#fff"/>
</svg>
