<svg width="11" height="11" viewBox="0 0 11 11" fill="none" xmlns="http://www.w3.org/2000/svg">
<g clip-path="url(#clip0_262_1377)">
<path d="M6.41072 5.32515C6.42765 5.32517 6.44421 5.32018 6.45832 5.31082C6.47242 5.30146 6.48345 5.28814 6.49001 5.27253C6.49658 5.25693 6.49838 5.23973 6.49521 5.2231C6.49203 5.20647 6.48402 5.19115 6.47217 5.17906L4.78779 3.46633C4.77582 3.45417 4.76051 3.44586 4.74379 3.44243C4.72708 3.43901 4.70973 3.44064 4.69395 3.44712C4.67816 3.45359 4.66467 3.46462 4.65517 3.47879C4.64567 3.49296 4.64061 3.50964 4.64063 3.5267V5.06734C4.64063 5.13572 4.66779 5.20129 4.71614 5.24964C4.76449 5.29799 4.83006 5.32515 4.89844 5.32515H6.41072Z" fill="#2D3748"/>
<path d="M4.23242 5.73347C4.14418 5.64642 4.07406 5.54273 4.02612 5.42842C3.97818 5.3141 3.95337 5.19142 3.95312 5.06746V3.0909H2.40625C2.04191 3.09197 1.6928 3.23718 1.43517 3.49481C1.17754 3.75244 1.03233 4.10155 1.03125 4.4659V9.2784C1.03125 9.64307 1.17612 9.9928 1.43398 10.2507C1.69184 10.5085 2.04158 10.6534 2.40625 10.6534H5.5C5.86467 10.6534 6.21441 10.5085 6.47227 10.2507C6.73013 9.9928 6.875 9.64307 6.875 9.2784V6.01277H4.89844C4.77447 6.01259 4.65176 5.98782 4.53744 5.93987C4.42311 5.89193 4.31944 5.82178 4.23242 5.73347Z" fill="#2D3748"/>
<path d="M7.99219 2.57494H9.50447C9.5214 2.57495 9.53796 2.56997 9.55207 2.56061C9.56617 2.55125 9.5772 2.53793 9.58376 2.52232C9.59033 2.50671 9.59213 2.48952 9.58896 2.47289C9.58578 2.45626 9.57777 2.44094 9.56592 2.42885L7.88154 0.716113C7.86957 0.703959 7.85426 0.695641 7.83754 0.692221C7.82083 0.6888 7.80348 0.690431 7.7877 0.696905C7.77191 0.70338 7.75842 0.714405 7.74892 0.728576C7.73942 0.742748 7.73436 0.759425 7.73438 0.776484V2.31713C7.73438 2.3855 7.76154 2.45108 7.80989 2.49943C7.85824 2.54778 7.92381 2.57494 7.99219 2.57494Z" fill="#2D3748"/>
<path d="M7.99219 3.26257C7.74206 3.26066 7.50273 3.16045 7.32586 2.98359C7.14899 2.80672 7.04878 2.56738 7.04687 2.31726V0.340698H4.72656C4.3848 0.341096 4.05716 0.477036 3.8155 0.718695C3.57384 0.960355 3.4379 1.288 3.4375 1.62976V2.4032H4.34242C4.45793 2.40366 4.5722 2.42694 4.67868 2.4717C4.78516 2.51646 4.88175 2.58182 4.96289 2.66402L7.30812 5.04878C7.47174 5.21479 7.56309 5.43875 7.56228 5.67183V8.5907H8.70203C9.40049 8.5907 9.96853 8.01234 9.96853 7.30163V3.26257H7.99219Z" fill="black"/>
</g>
<defs>
<clipPath id="clip0_262_1377">
<rect width="11" height="11" fill="white" transform="translate(0 -0.00283813)"/>
</clipPath>
</defs>
</svg>
