<svg width="9" height="11" viewBox="0 0 9 11" fill="none" xmlns="http://www.w3.org/2000/svg">
<g clip-path="url(#clip0_262_1323)">
<path d="M5.4452 2.01149C5.12666 1.58942 4.68175 1.35699 4.19068 1.35699C3.69699 1.35699 3.2506 1.58801 2.93354 2.00748C2.61303 2.43156 2.45687 3.00792 2.49354 3.63029C2.56621 4.85814 3.32754 5.85698 4.19068 5.85698C5.05382 5.85698 5.81383 4.85835 5.88766 3.63069C5.92481 3.01395 5.76767 2.43879 5.4452 2.01149Z" fill="black"/>
<path d="M7.07096 10.3565H1.30906C1.23364 10.3577 1.15895 10.3383 1.09043 10.2996C1.0219 10.2609 0.961267 10.204 0.912928 10.1329C0.80653 9.97684 0.763643 9.7637 0.795399 9.54814C0.933553 8.60756 1.36471 7.81745 2.04239 7.26278C2.64445 6.77039 3.40708 6.49939 4.19001 6.49939C4.97294 6.49939 5.73558 6.77059 6.33763 7.26278C7.01531 7.81724 7.44647 8.60736 7.58462 9.54794C7.61638 9.76349 7.57349 9.97664 7.46709 10.1327C7.41877 10.2038 7.35814 10.2608 7.28961 10.2995C7.22109 10.3382 7.14639 10.3577 7.07096 10.3565Z" fill="black"/>
</g>
<defs>
<clipPath id="clip0_262_1323">
<rect width="8.38095" height="10.2857" fill="white" transform="translate(0 0.714285)"/>
</clipPath>
</defs>
</svg>
