<svg width="14" height="14" viewBox="0 0 14 14" fill="none" xmlns="http://www.w3.org/2000/svg">
<path d="M0.875 10.2809C0.875 10.687 1.03633 11.0765 1.32349 11.3636C1.61066 11.6508 2.00014 11.8121 2.40625 11.8121H11.5937C11.9999 11.8121 12.3893 11.6508 12.6765 11.3636C12.9637 11.0765 13.125 10.687 13.125 10.2809V6.06992H0.875V10.2809ZM2.67969 8.20274C2.67969 7.98518 2.76611 7.77653 2.91995 7.62269C3.07379 7.46885 3.28244 7.38242 3.5 7.38242H4.8125C5.03006 7.38242 5.23871 7.46885 5.39255 7.62269C5.54639 7.77653 5.63281 7.98518 5.63281 8.20274V8.74961C5.63281 8.96717 5.54639 9.17582 5.39255 9.32966C5.23871 9.4835 5.03006 9.56992 4.8125 9.56992H3.5C3.28244 9.56992 3.07379 9.4835 2.91995 9.32966C2.76611 9.17582 2.67969 8.96717 2.67969 8.74961V8.20274Z" fill="black"/>
<path d="M11.5937 2.18675H2.40625C2.00014 2.18675 1.61066 2.34808 1.32349 2.63525C1.03633 2.92241 0.875 3.31189 0.875 3.718V4.42894H13.125V3.718C13.125 3.31189 12.9637 2.92241 12.6765 2.63525C12.3893 2.34808 11.9999 2.18675 11.5937 2.18675Z" fill="black"/>
</svg>
