<svg width="14" height="14" viewBox="0 0 14 14" fill="none" xmlns="http://www.w3.org/2000/svg">
<g clip-path="url(#clip0_262_1314)">
<path d="M13.0604 1.04678C13.0554 1.0226 13.0436 1.00034 13.0264 0.982617C13.0092 0.964892 12.9873 0.952435 12.9633 0.946706C11.3618 0.555144 7.66135 1.9505 5.65651 3.95452C5.29893 4.30921 4.97294 4.69439 4.68225 5.10569C4.06401 5.051 3.44576 5.09667 2.91885 5.32635C1.43217 5.98069 0.999321 7.68803 0.878735 8.42248C0.871895 8.46268 0.874475 8.50392 0.886272 8.54296C0.898068 8.58199 0.91876 8.61775 0.94672 8.64744C0.97468 8.67712 1.00915 8.69991 1.0474 8.71402C1.08566 8.72812 1.12667 8.73316 1.16721 8.72873L3.55459 8.46541C3.5563 8.64541 3.56716 8.8252 3.58713 9.00408C3.59915 9.12831 3.65429 9.24441 3.74299 9.33221L4.66748 10.2545C4.75537 10.3431 4.87142 10.3982 4.99561 10.4104C5.1735 10.4303 5.35228 10.4411 5.53127 10.4429L5.26932 12.8273C5.26495 12.8678 5.27003 12.9088 5.28415 12.947C5.29828 12.9853 5.32107 13.0197 5.35074 13.0476C5.38041 13.0756 5.41615 13.0963 5.45516 13.1081C5.49416 13.1199 5.53538 13.1225 5.57557 13.1158C6.30865 12.9982 8.01901 12.5653 8.66951 11.0787C8.8992 10.5517 8.94623 9.93651 8.89318 9.32127C9.30548 9.03056 9.69167 8.70449 10.0474 8.34674C12.0585 6.34573 13.4459 2.72788 13.0604 1.04678ZM8.04088 5.95963C7.85724 5.77611 7.73215 5.54225 7.68144 5.28762C7.63072 5.033 7.65667 4.76906 7.75598 4.52918C7.85529 4.2893 8.02352 4.08427 8.23938 3.94001C8.45524 3.79575 8.70903 3.71875 8.96865 3.71875C9.22828 3.71875 9.48207 3.79575 9.69793 3.94001C9.91379 4.08427 10.082 4.2893 10.1813 4.52918C10.2806 4.76906 10.3066 5.033 10.2559 5.28762C10.2052 5.54225 10.0801 5.77611 9.89643 5.95963C9.77465 6.08158 9.63003 6.17833 9.47083 6.24433C9.31164 6.31034 9.14099 6.34432 8.96865 6.34432C8.79632 6.34432 8.62567 6.31034 8.46647 6.24433C8.30728 6.17833 8.16265 6.08158 8.04088 5.95963Z" fill="black"/>
<path d="M4.60469 10.9226C4.45484 11.0727 4.21449 11.1312 3.92519 11.1813C3.27523 11.292 2.70129 10.7304 2.81805 10.0733C2.86262 9.82419 2.99441 9.47501 3.07644 9.39298C3.09437 9.37539 3.10631 9.35261 3.11055 9.32786C3.1148 9.3031 3.11113 9.27764 3.10008 9.25509C3.08904 9.23254 3.07116 9.21404 3.049 9.20222C3.02684 9.19041 3.00152 9.18587 2.97664 9.18927C2.61318 9.23374 2.27504 9.39852 2.01605 9.65739C1.3732 10.3008 1.3125 12.6882 1.3125 12.6882C1.3125 12.6882 3.70125 12.6275 4.3441 11.9841C4.60377 11.7253 4.76877 11.3866 4.8125 11.0227C4.82262 10.9084 4.68344 10.8403 4.60469 10.9226Z" fill="black"/>
</g>
<defs>
<clipPath id="clip0_262_1314">
<rect width="14" height="14" fill="white"/>
</clipPath>
</defs>
</svg>
