<svg width="16" height="16" viewBox="0 0 16 16" fill="none" xmlns="http://www.w3.org/2000/svg">
<path fill-rule="evenodd" clip-rule="evenodd" d="M7.85889 0C7.10683 0 6.465 0.543712 6.34136 1.28554L6.26625 1.73622C6.22783 1.96673 6.06119 2.15309 5.84234 2.23503C5.70922 2.28488 5.57828 2.3392 5.44972 2.39782C5.237 2.49482 4.98726 2.48092 4.79701 2.34504L4.42502 2.07933C3.81304 1.6422 2.97474 1.71158 2.44295 2.24337L2.24339 2.44293C1.7116 2.97472 1.64222 3.81302 2.07934 4.425L2.34505 4.79699C2.48094 4.98723 2.49483 5.23697 2.39783 5.4497C2.33921 5.57826 2.28488 5.7092 2.23504 5.84233C2.15309 6.06118 1.96673 6.22782 1.73622 6.26624L1.28554 6.34135C0.543713 6.46499 0 7.10682 0 7.85888V8.14111C0 8.89317 0.543711 9.535 1.28554 9.65864L1.73622 9.73375C1.96673 9.77217 2.15309 9.93882 2.23503 10.1577C2.28488 10.2908 2.3392 10.4217 2.39782 10.5503C2.49481 10.763 2.48092 11.0127 2.34503 11.203L2.07931 11.575C1.64218 12.187 1.71156 13.0253 2.24335 13.5571L2.44291 13.7566C2.9747 14.2884 3.81301 14.3578 4.42498 13.9207L4.79699 13.655C4.98724 13.5191 5.23698 13.5052 5.4497 13.6022C5.57827 13.6608 5.7092 13.7151 5.84233 13.765C6.06117 13.8469 6.22782 14.0333 6.26624 14.2638L6.34135 14.7145C6.46499 15.4563 7.10682 16 7.85888 16H8.14111C8.89317 16 9.535 15.4563 9.65864 14.7145L9.73375 14.2638C9.77217 14.0333 9.93882 13.8469 10.1577 13.765C10.2908 13.7151 10.4217 13.6608 10.5503 13.6022C10.763 13.5052 11.0127 13.5191 11.203 13.655L11.575 13.9207C12.187 14.3578 13.0253 14.2884 13.5571 13.7566L13.7566 13.5571C14.2884 13.0253 14.3578 12.187 13.9207 11.575L13.655 11.203C13.5191 11.0128 13.5052 10.763 13.6022 10.5503C13.6608 10.4217 13.7151 10.2908 13.765 10.1577C13.8469 9.93883 14.0333 9.77218 14.2638 9.73376L14.7145 9.65865C15.4563 9.53501 16 8.89318 16 8.14112V7.85889C16 7.10683 15.4563 6.465 14.7145 6.34136L14.2638 6.26625C14.0333 6.22783 13.8469 6.06119 13.765 5.84234C13.7151 5.70922 13.6608 5.57829 13.6022 5.44972C13.5052 5.237 13.5191 4.98726 13.655 4.79702L13.9207 4.425C14.3578 3.81302 14.2884 2.97472 13.7567 2.44293L13.5571 2.24337C13.0253 1.71158 12.187 1.6422 11.575 2.07932L11.203 2.34504C11.0128 2.48093 10.763 2.49483 10.5503 2.39783C10.4217 2.33921 10.2908 2.28488 10.1577 2.23504C9.93883 2.15309 9.77218 1.96673 9.73376 1.73622L9.65865 1.28554C9.53501 0.543712 8.89318 0 8.14112 0H7.85889ZM8 11.0769C9.69934 11.0769 11.0769 9.69934 11.0769 8C11.0769 6.30066 9.69934 4.92308 8 4.92308C6.30066 4.92308 4.92308 6.30066 4.92308 8C4.92308 9.69934 6.30066 11.0769 8 11.0769Z" fill="#fff"/>
</svg>
