<svg width="24" height="24" viewBox="0 0 24 24" fill="none" xmlns="http://www.w3.org/2000/svg">
<mask id="mask0_17_606" style="mask-type:luminance" maskUnits="userSpaceOnUse" x="0" y="0" width="24" height="24">
<rect width="24" height="24" fill="white"/>
</mask>
<g mask="url(#mask0_17_606)">
<path fill-rule="evenodd" clip-rule="evenodd" d="M9.83217 5.15817C9.93961 5.25918 10 5.39633 10 5.53936C10 5.68239 9.93961 5.81954 9.83217 5.92055L3.3801 12.0001L9.83217 18.0797C10.0555 18.2902 10.0556 18.6315 9.83223 18.842C9.60892 19.0526 9.2468 19.0527 9.02337 18.8422L2.16784 12.3813C2.06039 12.2803 2 12.1432 2 12.0001C2 11.8571 2.06039 11.72 2.16784 11.619L9.02323 5.15817C9.13041 5.05691 9.27593 5 9.4277 5C9.57946 5 9.72499 5.05691 9.83217 5.15817V5.15817Z" fill="#757575"/>
</g>
</svg>
