<svg width="167" height="26" viewBox="0 0 167 26" fill="none" xmlns="http://www.w3.org/2000/svg">
<path d="M18.4251 7.92C17.8651 6.89333 17.0951 6.11167 16.1151 5.575C15.1351 5.03833 13.9918 4.77 12.6851 4.77C11.2384 4.77 9.9551 5.09667 8.8351 5.75C7.7151 6.40333 6.8401 7.33667 6.2101 8.55C5.5801 9.76333 5.2651 11.1633 5.2651 12.75C5.2651 14.3833 5.5801 15.8067 6.2101 17.02C6.86343 18.2333 7.76176 19.1667 8.9051 19.82C10.0484 20.4733 11.3784 20.8 12.8951 20.8C14.7618 20.8 16.2901 20.31 17.4801 19.33C18.6701 18.3267 19.4518 16.9383 19.8251 15.165H11.4251V11.42H24.6551V15.69C24.3284 17.3933 23.6284 18.9683 22.5551 20.415C21.4818 21.8617 20.0934 23.0283 18.3901 23.915C16.7101 24.7783 14.8201 25.21 12.7201 25.21C10.3634 25.21 8.22843 24.685 6.3151 23.635C4.4251 22.5617 2.93176 21.08 1.8351 19.19C0.761764 17.3 0.225098 15.1533 0.225098 12.75C0.225098 10.3467 0.761764 8.2 1.8351 6.31C2.93176 4.39667 4.4251 2.915 6.3151 1.865C8.22843 0.791668 10.3518 0.255001 12.6851 0.255001C15.4384 0.255001 17.8301 0.931667 19.8601 2.285C21.8901 3.615 23.2901 5.49333 24.0601 7.92H18.4251Z" fill="url(#paint0_linear_18_678)"/>
<path d="M39.6203 25.245C37.3337 25.245 35.2337 24.7083 33.3203 23.635C31.407 22.5617 29.8903 21.08 28.7703 19.19C27.6503 17.2767 27.0903 15.1183 27.0903 12.715C27.0903 10.335 27.6503 8.2 28.7703 6.31C29.8903 4.39667 31.407 2.90333 33.3203 1.83C35.2337 0.756667 37.3337 0.220001 39.6203 0.220001C41.9303 0.220001 44.0303 0.756667 45.9203 1.83C47.8337 2.90333 49.3387 4.39667 50.4353 6.31C51.5553 8.2 52.1153 10.335 52.1153 12.715C52.1153 15.1183 51.5553 17.2767 50.4353 19.19C49.3387 21.08 47.8337 22.5617 45.9203 23.635C44.007 24.7083 41.907 25.245 39.6203 25.245ZM39.6203 20.87C41.0903 20.87 42.3853 20.5433 43.5053 19.89C44.6253 19.2133 45.5003 18.2567 46.1303 17.02C46.7603 15.7833 47.0753 14.3483 47.0753 12.715C47.0753 11.0817 46.7603 9.65833 46.1303 8.445C45.5003 7.20833 44.6253 6.26333 43.5053 5.61C42.3853 4.95667 41.0903 4.63 39.6203 4.63C38.1503 4.63 36.8437 4.95667 35.7003 5.61C34.5803 6.26333 33.7053 7.20833 33.0753 8.445C32.4453 9.65833 32.1303 11.0817 32.1303 12.715C32.1303 14.3483 32.4453 15.7833 33.0753 17.02C33.7053 18.2567 34.5803 19.2133 35.7003 19.89C36.8437 20.5433 38.1503 20.87 39.6203 20.87Z" fill="url(#paint1_linear_18_678)"/>
<path d="M64.1958 25.245C62.4925 25.245 60.9525 24.9533 59.5758 24.37C58.2225 23.7867 57.1491 22.9467 56.3558 21.85C55.5625 20.7533 55.1541 19.4583 55.1308 17.965H60.3808C60.4508 18.9683 60.8008 19.7617 61.4308 20.345C62.0841 20.9283 62.9708 21.22 64.0908 21.22C65.2341 21.22 66.1325 20.9517 66.7858 20.415C67.4391 19.855 67.7658 19.1317 67.7658 18.245C67.7658 17.5217 67.5441 16.9267 67.1008 16.46C66.6575 15.9933 66.0975 15.6317 65.4208 15.375C64.7675 15.095 63.8575 14.7917 62.6908 14.465C61.1041 13.9983 59.8091 13.5433 58.8058 13.1C57.8258 12.6333 56.9741 11.945 56.2508 11.035C55.5508 10.1017 55.2008 8.865 55.2008 7.325C55.2008 5.87833 55.5625 4.61833 56.2858 3.545C57.0091 2.47167 58.0241 1.655 59.3308 1.095C60.6375 0.511668 62.1308 0.220001 63.8108 0.220001C66.3308 0.220001 68.3725 0.838334 69.9358 2.075C71.5225 3.28833 72.3975 4.99167 72.5608 7.185H67.1708C67.1241 6.345 66.7625 5.65667 66.0858 5.12C65.4325 4.56 64.5575 4.28 63.4608 4.28C62.5041 4.28 61.7341 4.525 61.1508 5.015C60.5908 5.505 60.3108 6.21667 60.3108 7.15C60.3108 7.80333 60.5208 8.35167 60.9408 8.795C61.3841 9.215 61.9208 9.565 62.5508 9.845C63.2041 10.1017 64.1141 10.405 65.2808 10.755C66.8675 11.2217 68.1625 11.6883 69.1658 12.155C70.1691 12.6217 71.0325 13.3217 71.7558 14.255C72.4791 15.1883 72.8408 16.4133 72.8408 17.93C72.8408 19.2367 72.5025 20.45 71.8258 21.57C71.1491 22.69 70.1575 23.5883 68.8508 24.265C67.5441 24.9183 65.9925 25.245 64.1958 25.245Z" fill="url(#paint2_linear_18_678)"/>
<path d="M94.9039 8.13C94.9039 9.43667 94.5889 10.6617 93.9589 11.805C93.3523 12.9483 92.3839 13.87 91.0539 14.57C89.7473 15.27 88.0906 15.62 86.0839 15.62H81.9889V25H77.0889V0.570001H86.0839C87.9739 0.570001 89.5839 0.896668 90.9139 1.55C92.2439 2.20333 93.2356 3.10167 93.8889 4.245C94.5656 5.38833 94.9039 6.68333 94.9039 8.13ZM85.8739 11.665C87.2273 11.665 88.2306 11.3617 88.8839 10.755C89.5373 10.125 89.8639 9.25 89.8639 8.13C89.8639 5.75 88.5339 4.56 85.8739 4.56H81.9889V11.665H85.8739Z" fill="url(#paint3_linear_18_678)"/>
<path d="M103.283 4.525V10.65H111.508V14.535H103.283V21.01H112.558V25H98.3829V0.534999H112.558V4.525H103.283Z" fill="url(#paint4_linear_18_678)"/>
<path d="M121.911 21.115H129.961V25H117.011V0.570001H121.911V21.115Z" fill="url(#paint5_linear_18_678)"/>
<path d="M137.975 0.570001V25H133.075V0.570001H137.975Z" fill="url(#paint6_linear_18_678)"/>
<path d="M154.156 25.245C151.87 25.245 149.77 24.7083 147.856 23.635C145.943 22.5617 144.426 21.08 143.306 19.19C142.186 17.2767 141.626 15.1183 141.626 12.715C141.626 10.335 142.186 8.2 143.306 6.31C144.426 4.39667 145.943 2.90333 147.856 1.83C149.77 0.756667 151.87 0.220001 154.156 0.220001C156.466 0.220001 158.566 0.756667 160.456 1.83C162.37 2.90333 163.875 4.39667 164.971 6.31C166.091 8.2 166.651 10.335 166.651 12.715C166.651 15.1183 166.091 17.2767 164.971 19.19C163.875 21.08 162.37 22.5617 160.456 23.635C158.543 24.7083 156.443 25.245 154.156 25.245ZM154.156 20.87C155.626 20.87 156.921 20.5433 158.041 19.89C159.161 19.2133 160.036 18.2567 160.666 17.02C161.296 15.7833 161.611 14.3483 161.611 12.715C161.611 11.0817 161.296 9.65833 160.666 8.445C160.036 7.20833 159.161 6.26333 158.041 5.61C156.921 4.95667 155.626 4.63 154.156 4.63C152.686 4.63 151.38 4.95667 150.236 5.61C149.116 6.26333 148.241 7.20833 147.611 8.445C146.981 9.65833 146.666 11.0817 146.666 12.715C146.666 14.3483 146.981 15.7833 147.611 17.02C148.241 18.2567 149.116 19.2133 150.236 19.89C151.38 20.5433 152.686 20.87 154.156 20.87Z" fill="url(#paint7_linear_18_678)"/>
<defs>
<linearGradient id="paint0_linear_18_678" x1="4.63948" y1="9.0527" x2="161.723" y2="16.6257" gradientUnits="userSpaceOnUse">
<stop stop-color="#0048FF"/>
<stop offset="1" stop-color="#D6008D"/>
</linearGradient>
<linearGradient id="paint1_linear_18_678" x1="4.63948" y1="9.0527" x2="161.723" y2="16.6257" gradientUnits="userSpaceOnUse">
<stop stop-color="#0048FF"/>
<stop offset="1" stop-color="#D6008D"/>
</linearGradient>
<linearGradient id="paint2_linear_18_678" x1="4.63948" y1="9.0527" x2="161.723" y2="16.6257" gradientUnits="userSpaceOnUse">
<stop stop-color="#0048FF"/>
<stop offset="1" stop-color="#D6008D"/>
</linearGradient>
<linearGradient id="paint3_linear_18_678" x1="4.63948" y1="9.0527" x2="161.723" y2="16.6257" gradientUnits="userSpaceOnUse">
<stop stop-color="#0048FF"/>
<stop offset="1" stop-color="#D6008D"/>
</linearGradient>
<linearGradient id="paint4_linear_18_678" x1="4.63948" y1="9.0527" x2="161.723" y2="16.6257" gradientUnits="userSpaceOnUse">
<stop stop-color="#0048FF"/>
<stop offset="1" stop-color="#D6008D"/>
</linearGradient>
<linearGradient id="paint5_linear_18_678" x1="4.63948" y1="9.0527" x2="161.723" y2="16.6257" gradientUnits="userSpaceOnUse">
<stop stop-color="#0048FF"/>
<stop offset="1" stop-color="#D6008D"/>
</linearGradient>
<linearGradient id="paint6_linear_18_678" x1="4.63948" y1="9.0527" x2="161.723" y2="16.6257" gradientUnits="userSpaceOnUse">
<stop stop-color="#0048FF"/>
<stop offset="1" stop-color="#D6008D"/>
</linearGradient>
<linearGradient id="paint7_linear_18_678" x1="4.63948" y1="9.0527" x2="161.723" y2="16.6257" gradientUnits="userSpaceOnUse">
<stop stop-color="#0048FF"/>
<stop offset="1" stop-color="#D6008D"/>
</linearGradient>
</defs>
</svg>
