<svg width="10" height="18" viewBox="0 0 10 18" fill="none" xmlns="http://www.w3.org/2000/svg">
<path fill-rule="evenodd" clip-rule="evenodd" d="M7.18861 0C8.39461 0 8.99761 0.8208 8.99761 1.7613C8.99761 2.9358 7.95001 4.0221 6.58651 4.0221C5.44441 4.0221 4.77841 3.3471 4.80991 2.2311C4.80991 1.2924 5.60281 0 7.18861 0ZM3.47796 17.9999C2.52576 17.9999 1.82826 17.4131 2.49426 14.8283L3.58686 10.2455C3.77676 9.51295 3.80826 9.21865 3.58686 9.21865C3.30156 9.21865 2.06676 9.72445 1.33506 10.2239L0.859863 9.43195C3.17466 7.46455 5.83776 6.31165 6.98076 6.31165C7.93206 6.31165 8.09046 7.45735 7.61526 9.21865L6.36336 14.0354C6.14196 14.8859 6.23646 15.1793 6.45876 15.1793C6.74406 15.1793 7.68006 14.8265 8.59986 14.093L9.13986 14.8256C6.88806 17.1179 4.42836 17.9999 3.47796 17.9999Z" fill="url(#paint0_linear_17_613)"/>
<defs>
<linearGradient id="paint0_linear_17_613" x1="4.99986" y1="0" x2="4.99986" y2="17.9999" gradientUnits="userSpaceOnUse">
<stop stop-color="#0048FF"/>
<stop offset="1" stop-color="#D6008D"/>
</linearGradient>
</defs>
</svg>
